<?xml version="1.0" encoding="UTF-8" standalone="no"?>
<!DOCTYPE svg PUBLIC "-//W3C//DTD SVG 1.1//EN" "http://www.w3.org/Graphics/SVG/1.1/DTD/svg11.dtd">
<svg width="100%" height="100%" viewBox="0 0 82 103" version="1.1" xmlns="http://www.w3.org/2000/svg" xmlns:xlink="http://www.w3.org/1999/xlink" xml:space="preserve" xmlns:serif="http://www.serif.com/" style="fill-rule:evenodd;clip-rule:evenodd;stroke-linecap:round;stroke-linejoin:round;stroke-miterlimit:10;">
    <g transform="matrix(0.24,0,0,0.24,-75.9988,-66.8323)">
        <g transform="matrix(4.16667,0,0,4.16667,0,0)">
            <g transform="matrix(1,0,0,1,91.958,117.144)">
                <path d="M0,-35.073C-2.211,-34.426 7.244,-29.668 5.216,-25.013C3.188,-20.358 0.852,-1.715 4.471,1.068C8.091,3.851 12.362,8.58 22.728,7.774C33.094,6.969 41.048,5.249 42.848,-1.913C44.647,-9.074 40.631,-16.767 40.612,-23.523C40.594,-30.202 42.765,-36.008 44.62,-36.848C46.477,-37.688 38.721,-34.452 34.278,-38.053C29.835,-41.656 28.465,-43.653 24.218,-42.897C19.972,-42.141 12.493,-37.629 13.04,-34.7C13.521,-32.127 2.21,-35.719 0,-35.073" style="fill:rgb(201,32,39);"/>
            </g>
        </g>
        <g transform="matrix(4.16667,0,0,4.16667,0,0)">
            <g transform="matrix(-0.980566,0.196187,0.196187,0.980566,92.6255,150.25)">
                <path d="M-7.185,-11.557C-15.016,-8.897 -15.882,-3.062 -15.33,-0.302C-14.777,2.46 -14.34,3.351 -7.185,1.92C-0.028,0.488 9.88,-9.02 9.327,-11.78C8.775,-14.54 -0.275,-13.905 -7.185,-11.557" style="fill:rgb(29,175,74);"/>
            </g>
        </g>
        <g transform="matrix(4.16667,0,0,4.16667,0,0)">
            <g transform="matrix(-0.999511,-0.0312709,-0.0312709,0.999511,138.005,157.399)">
                <path d="M8.098,-10.958C15.249,-9.496 16.666,-7.085 16.578,-4.272C16.49,-1.458 15.394,1.358 8.098,1.13C0.803,0.901 -8.676,-6.022 -8.588,-8.836C-8.5,-11.651 2.347,-12.136 8.098,-10.958" style="fill:rgb(29,175,74);"/>
            </g>
        </g>
        <g transform="matrix(4.16667,0,0,4.16667,0,0)">
            <g transform="matrix(1,0,0,1,113.262,130.75)">
                <path d="M0,-1.794L6.419,-1.794C6.419,-1.794 6.452,0 3.398,-0.283C0.345,-0.566 0,-1.794 0,-1.794" style="fill:rgb(29,175,74);"/>
            </g>
        </g>
        <g transform="matrix(4.16667,0,0,4.16667,0,0)">
            <g transform="matrix(1,0,0,1,122.127,118.471)">
                <path d="M0,-32.274C4.875,-36.399 12.78,-40.138 20.121,-40.138C20.121,-40.138 14.789,-37.846 14.789,-25.805C14.789,-19.138 18.791,-8.302 15.625,-1.636C11.763,6.494 -0.127,7.864 -5.627,7.864C-11.127,7.864 -23.017,6.494 -26.879,-1.636C-30.045,-8.302 -26.043,-19.138 -26.043,-25.805C-26.043,-28.51 -26.312,-30.724 -26.729,-32.53" style="fill:none;fill-rule:nonzero;stroke:rgb(51,38,39);stroke-width:4px;"/>
            </g>
        </g>
        <g transform="matrix(4.16667,0,0,4.16667,0,0)">
            <g transform="matrix(1,0,0,1,104.166,73.2073)">
                <path d="M0,1.739C0,1.739 7.167,-4.375 12.834,-4.375C17.334,-4.375 22.436,-0.952 25.959,1.739C25.959,1.739 18.709,6.114 12.834,6.114C6.959,6.114 7.334,0.738 12.834,0.738C16.167,0.738 18.334,3.739 18.334,3.739" style="fill:none;fill-rule:nonzero;stroke:rgb(51,38,39);stroke-width:4px;"/>
            </g>
        </g>
        <g transform="matrix(4.16667,0,0,4.16667,0,0)">
            <g transform="matrix(0.562793,-0.826598,-0.826598,-0.562793,124.938,86.552)">
                <path d="M-14.759,-11.081C-10.23,-6.183 -11.731,6.756 -16.014,12.157C-13.822,14.569 -14.045,17.668 -14.759,20.639C-16.045,25.986 -18.072,31.173 -12.446,32.884C-1.473,16.768 -2.439,-4.003 -22.277,-17.51" style="fill:none;fill-rule:nonzero;stroke:rgb(51,38,39);stroke-width:4px;"/>
            </g>
        </g>
        <g transform="matrix(4.16667,0,0,4.16667,0,0)">
            <g transform="matrix(1,0,0,1,122.625,132.169)">
                <path d="M0,-6.125C0,-2.743 -2.742,0 -6.125,0C-9.508,0 -12.25,-2.743 -12.25,-6.125" style="fill:none;fill-rule:nonzero;stroke:rgb(51,38,39);stroke-width:4px;"/>
            </g>
        </g>
        <g transform="matrix(4.16667,0,0,4.16667,0,0)">
            <g transform="matrix(0,1,1,0,133.5,150.169)">
                <path d="M-17,-17L17,-17" style="fill:none;fill-rule:nonzero;stroke:rgb(51,38,39);stroke-width:4px;"/>
            </g>
        </g>
        <g transform="matrix(4.16667,0,0,4.16667,0,0)">
            <g transform="matrix(0.98993,-0.14156,-0.14156,-0.98993,116.606,139.659)">
                <path d="M-0.036,0.5L7.036,0.501" style="fill:none;fill-rule:nonzero;stroke:rgb(51,38,39);stroke-width:4px;"/>
            </g>
        </g>
        <g transform="matrix(4.16667,0,0,4.16667,0,0)">
            <g transform="matrix(0.98993,0.14156,0.14156,-0.98993,109.606,159.426)">
                <path d="M-0.036,-0.5L7.036,-0.501" style="fill:none;fill-rule:nonzero;stroke:rgb(51,38,39);stroke-width:4px;"/>
            </g>
        </g>
        <g transform="matrix(4.16667,0,0,4.16667,0,0)">
            <g transform="matrix(-0.948575,-0.316551,-0.316551,0.948575,86.6095,146.978)">
                <path d="M-10.406,-16.538C-18.881,-16.843 -22.745,-13.126 -22.745,-8.188C-22.745,-3.248 -18.877,-0.196 -10.406,0.161C0.176,0.608 10.754,-5.024 10.754,-5.024C10.754,-5.024 1.407,-16.112 -10.406,-16.538Z" style="fill:none;fill-rule:nonzero;stroke:rgb(51,38,39);stroke-width:4px;"/>
            </g>
        </g>
        <g transform="matrix(4.16667,0,0,4.16667,0,0)">
            <g transform="matrix(0.925547,0.378633,0.378633,-0.925547,99.4575,137.648)">
                <path d="M-0.774,-3.938C7.145,-1.508 13.624,-1.829 20.024,-3.938" style="fill:none;fill-rule:nonzero;stroke:rgb(51,38,39);stroke-width:4px;"/>
            </g>
        </g>
        <g transform="matrix(4.16667,0,0,4.16667,0,0)">
            <g transform="matrix(-0.948557,0.316605,0.316605,0.948557,146.39,154.851)">
                <path d="M10.406,-16.538C18.88,-16.843 22.745,-13.127 22.745,-8.189C22.745,-3.249 18.878,-0.196 10.406,0.161C-0.176,0.609 -10.754,-5.023 -10.754,-5.023C-10.754,-5.023 -1.408,-16.112 10.406,-16.538Z" style="fill:none;fill-rule:nonzero;stroke:rgb(51,38,39);stroke-width:4px;"/>
            </g>
        </g>
        <g transform="matrix(4.16667,0,0,4.16667,0,0)">
            <g transform="matrix(-0.925547,0.378633,0.378633,0.925547,118.706,160.099)">
                <path d="M-20.024,-3.938C-12.105,-6.367 -5.626,-6.046 0.774,-3.938" style="fill:none;fill-rule:nonzero;stroke:rgb(51,38,39);stroke-width:4px;"/>
            </g>
        </g>
    </g>
</svg>
