<?xml version="1.0" standalone="no"?>
<!DOCTYPE svg PUBLIC "-//W3C//DTD SVG 20010904//EN"
 "http://www.w3.org/TR/2001/REC-SVG-20010904/DTD/svg10.dtd">
<svg version="1.0" xmlns="http://www.w3.org/2000/svg"
 width="260.000000pt" height="260.000000pt" viewBox="0 0 260.000000 260.000000"
 preserveAspectRatio="xMidYMid meet">
<metadata>
Created by potrace 1.11, written by Peter Selinger 2001-2013
</metadata>
<g transform="translate(0.000000,260.000000) scale(0.100000,-0.100000)"
fill="#000000" stroke="none">
<path d="M1075 2584 c-262 -46 -504 -173 -695 -364 -250 -250 -380 -565 -380
-920 0 -355 130 -669 380 -920 248 -249 565 -380 920 -380 355 0 672 131 920
380 250 251 380 565 380 920 0 355 -130 670 -380 920 -194 194 -433 318 -699
364 -116 20 -334 20 -446 0z m451 -109 c232 -42 432 -150 615 -334 127 -127
205 -241 267 -393 63 -156 84 -270 84 -448 0 -178 -22 -294 -84 -448 -62 -152
-140 -266 -267 -393 -241 -241 -505 -352 -841 -352 -336 0 -600 111 -841 352
-127 127 -205 241 -267 393 -63 155 -84 270 -84 448 0 242 60 452 187 646 72
112 242 283 350 354 262 171 565 231 881 175z"/>
<path d="M1245 2216 c-53 -17 -111 -47 -163 -86 -35 -25 -43 -36 -40 -58 4
-38 38 -40 90 -4 72 49 131 75 174 76 52 1 173 -53 149 -67 -11 -6 -25 -1 -46
17 -72 61 -191 47 -214 -25 -3 -10 -22 -28 -41 -40 l-35 -21 -77 20 c-42 11
-109 24 -149 27 -69 7 -72 6 -88 -19 -30 -46 -15 -103 39 -152 l46 -40 0 -70
c0 -38 -7 -107 -15 -154 -21 -121 -19 -254 4 -306 35 -77 138 -153 242 -178
18 -4 34 -19 46 -43 11 -22 35 -47 56 -58 l37 -20 -1 -95 c0 -91 -8 -100 -24
-27 -9 44 -69 102 -137 133 -50 22 -81 29 -153 32 -104 5 -176 -10 -295 -61
-63 -27 -75 -36 -78 -58 -6 -55 186 -195 336 -245 137 -46 236 -35 294 34 21
25 27 27 41 17 13 -10 17 -29 17 -88 l0 -76 -54 6 c-48 5 -55 3 -66 -17 -9
-18 -9 -25 6 -41 9 -10 29 -19 43 -19 61 0 71 -9 71 -61 0 -56 23 -79 60 -59
18 10 20 21 20 104 0 73 4 96 16 107 13 10 19 8 40 -14 72 -78 188 -84 345
-18 125 52 293 184 287 225 -11 73 -306 150 -449 116 -109 -26 -201 -93 -215
-158 -15 -73 -23 -63 -23 34 -1 112 0 113 70 114 14 0 34 9 43 19 14 16 15 23
6 41 -11 20 -18 22 -66 18 -49 -4 -54 -3 -54 16 0 14 13 28 37 41 21 11 45 36
56 58 12 24 28 39 46 43 104 25 207 101 242 178 23 52 25 185 4 306 -29 166
-12 297 46 351 32 29 37 60 14 79 -19 16 -133 -2 -220 -35 -71 -26 -98 -19
-34 10 62 28 68 49 24 90 -47 45 -168 104 -225 110 -25 3 -63 -1 -85 -9z
m-205 -270 c40 -12 42 -14 15 -14 -52 -1 -178 23 -182 34 -4 13 104 1 167 -20z
m614 -8 c-28 -89 -31 -200 -9 -328 26 -147 16 -280 -24 -304 -6 -4 -4 9 4 28
22 51 18 127 -11 273 -22 113 -24 136 -15 200 12 78 37 153 53 153 5 0 6 -10
2 -22z m-326 -825 c-16 -2 -40 -2 -55 0 -16 2 -3 4 27 4 30 0 43 -2 28 -4z
m-283 -154 c31 -11 68 -32 83 -45 l27 -25 -25 7 c-14 3 -50 18 -80 33 -46 22
-73 27 -160 30 -116 5 -98 18 27 20 51 1 89 -5 128 -20z m799 -148 c33 -11 64
-25 68 -29 5 -5 -13 -23 -39 -42 -27 -18 -42 -27 -35 -20 23 26 14 50 -25 68
-29 12 -69 16 -165 17 -71 0 -128 1 -128 2 0 1 21 9 48 18 64 20 198 14 276
-14z"/>
</g>
</svg>
