<?xml version="1.0" standalone="no"?>
<!DOCTYPE svg PUBLIC "-//W3C//DTD SVG 20010904//EN"
 "http://www.w3.org/TR/2001/REC-SVG-20010904/DTD/svg10.dtd">
<svg version="1.0" xmlns="http://www.w3.org/2000/svg"
 width="260.000000pt" height="260.000000pt" viewBox="0 0 260.000000 260.000000"
 preserveAspectRatio="xMidYMid meet">
<metadata>
Created by potrace 1.11, written by Peter Selinger 2001-2013
</metadata>
<g transform="translate(0.000000,260.000000) scale(0.100000,-0.100000)"
fill="#000000" stroke="none">
<path d="M1202 2145 c-29 -13 -73 -38 -98 -55 -37 -26 -45 -37 -42 -58 4 -36
31 -39 71 -9 59 45 134 77 179 77 52 -1 164 -54 136 -65 -11 -4 -27 1 -43 13
-67 53 -159 48 -194 -8 -9 -16 -30 -39 -45 -51 -29 -22 -29 -22 -95 -5 -36 10
-103 21 -148 23 l-82 6 -11 -29 c-18 -46 -4 -89 39 -126 54 -46 58 -76 31
-271 -26 -187 -20 -246 30 -316 33 -45 112 -95 179 -114 34 -9 50 -21 68 -50
13 -21 37 -46 54 -55 28 -17 29 -18 29 -104 0 -49 -2 -88 -5 -88 -2 0 -9 18
-15 41 -27 99 -128 160 -275 167 -102 5 -178 -11 -282 -58 -98 -45 -96 -61 17
-151 96 -76 196 -126 295 -146 102 -21 159 -9 206 44 43 50 59 33 59 -63 l0
-73 -52 2 c-53 2 -53 2 -53 -28 0 -28 3 -30 53 -39 51 -9 52 -10 52 -43 0 -44
16 -73 40 -73 30 0 40 31 40 120 0 95 14 110 58 63 75 -82 240 -65 414 41 91
55 178 132 178 157 0 26 -116 82 -218 105 -191 42 -378 -28 -412 -156 -6 -22
-13 -40 -15 -40 -3 0 -5 42 -5 93 l0 93 53 10 c44 8 53 13 55 33 5 32 -14 42
-65 35 -40 -6 -43 -5 -43 17 0 16 10 30 29 41 17 9 41 34 54 55 18 29 34 41
68 50 67 19 146 69 179 114 50 70 56 129 30 315 -28 206 -18 289 46 356 14 14
24 34 22 45 -6 29 -124 23 -211 -11 -80 -33 -112 -24 -43 11 26 13 50 31 53
40 9 22 -43 64 -131 108 -87 44 -155 47 -234 10z m-192 -221 c76 -17 111 -42
44 -31 -21 4 -63 10 -91 13 -58 7 -96 34 -49 34 15 0 58 -7 96 -16z m625 -34
c-26 -75 -28 -148 -5 -305 12 -88 18 -167 14 -190 -6 -42 -33 -94 -60 -116
-10 -8 -8 0 6 24 34 58 36 125 6 278 -24 119 -26 143 -16 202 11 70 24 113 42
134 21 25 27 12 13 -27z m-307 -767 c-16 -2 -40 -2 -55 0 -16 2 -3 4 27 4 30
0 43 -2 28 -4z m-265 -143 c30 -11 65 -32 78 -46 l24 -26 -25 7 c-14 4 -52 19
-85 33 -51 22 -76 26 -164 26 -95 1 -100 2 -65 13 64 19 176 16 237 -7z m742
-134 c28 -8 58 -21 68 -29 17 -12 14 -15 -29 -47 -67 -49 -83 -57 -56 -27 56
60 -9 91 -178 84 -58 -2 -114 -7 -125 -11 -11 -4 -6 1 10 10 80 46 199 54 310
20z"/>
</g>
</svg>
